# xmcd CD database file
#
# Track frame offsets:
#	150
#	11980
#	26350
#	50083
#	66800
#	85335
#	105958
#	123690
#	132295
#	151733
#	178795
#	193355
#	209640
#	233318
#
# Disc length: 3342 seconds
#
# Revision: 0
# Processed by: cddbd v1.4PL0 Copyright (c) Steve Scherf et al.
# Submitted via: CDex 1.50Beta7
#
DISCID=c00d0c0e
DTITLE=Benny Valerio Band - Texas Thunder
DYEAR=1993
DGENRE=Blues
TTITLE0=Head's Up
TTITLE1=Little By Little
TTITLE2=If You Be My Baby
TTITLE3=Cold-Hearted Woman
TTITLE4=Red House
TTITLE5=I'm Ready
TTITLE6=Mean Houston Blues
TTITLE7=Somethin' Else
TTITLE8=I've Got To Forget You
TTITLE9=Shake Your Hips
TTITLE10=Going Down
TTITLE11=Angel
TTITLE12=Love That Burns
TTITLE13=Meet Me At The Levee
EXTD=YEAR: 1993
EXTT0=
EXTT1=
EXTT2=
EXTT3=
EXTT4=
EXTT5=
EXTT6=
EXTT7=
EXTT8=
EXTT9=
EXTT10=
EXTT11=
EXTT12=
EXTT13=
PLAYORDER=
